<?xml version="1.0" encoding="utf-8" standalone="no"?>
<!DOCTYPE svg PUBLIC "-//W3C//DTD SVG 1.1//EN"
  "http://www.w3.org/Graphics/SVG/1.1/DTD/svg11.dtd">
<svg xmlns:xlink="http://www.w3.org/1999/xlink" width="460.8pt" height="345.6pt" viewBox="0 0 460.8 345.6" xmlns="http://www.w3.org/2000/svg" version="1.1">
 <metadata>
  <rdf:RDF xmlns:dc="http://purl.org/dc/elements/1.1/" xmlns:cc="http://creativecommons.org/ns#" xmlns:rdf="http://www.w3.org/1999/02/22-rdf-syntax-ns#">
   <cc:Work>
    <dc:type rdf:resource="http://purl.org/dc/dcmitype/StillImage"/>
    <dc:date>2024-04-09T20:52:55.642395</dc:date>
    <dc:format>image/svg+xml</dc:format>
    <dc:creator>
     <cc:Agent>
      <dc:title>Matplotlib v3.8.4, https://matplotlib.org/</dc:title>
     </cc:Agent>
    </dc:creator>
   </cc:Work>
  </rdf:RDF>
 </metadata>
 <defs>
  <style type="text/css">*{stroke-linejoin: round; stroke-linecap: butt}</style>
 </defs>
 <g id="figure_1">
  <g id="patch_1">
   <path d="M 0 345.6 
L 460.8 345.6 
L 460.8 0 
L 0 0 
z
" style="fill: #ffffff"/>
  </g>
  <g id="axes_1">
   <g id="patch_2">
    <path d="M 57.6 307.584 
L 414.72 307.584 
L 414.72 41.472 
L 57.6 41.472 
z
" style="fill: #ffffff"/>
   </g>
   <g id="matplotlib.axis_1">
    <g id="xtick_1">
     <g id="line2d_1">
      <defs>
       <path id="mb66b4a5434" d="M 0 0 
L 0 3.5 
" style="stroke: #000000; stroke-width: 0.8"/>
      </defs>
      <g>
       <use xlink:href="#mb66b4a5434" x="73.832727" y="307.584" style="stroke: #000000; stroke-width: 0.8"/>
      </g>
     </g>
     <g id="text_1">
      <!-- 0 -->
      <g transform="translate(71.332727 321.459) scale(0.1 -0.1)">
       <defs>
        <path id="SimHei-30" d="M 225 2537 
Q 250 3200 412 3587 
Q 575 3975 875 4225 
Q 1175 4475 1612 4475 
Q 2050 4475 2375 4112 
Q 2700 3750 2800 3200 
Q 2900 2650 2862 1937 
Q 2825 1225 2612 775 
Q 2400 325 1975 150 
Q 1550 -25 1125 187 
Q 700 400 525 750 
Q 350 1100 275 1487 
Q 200 1875 225 2537 
z
M 750 2687 
Q 675 2000 800 1462 
Q 925 925 1212 700 
Q 1500 475 1800 612 
Q 2100 750 2237 1162 
Q 2375 1575 2375 2062 
Q 2375 2550 2337 2950 
Q 2300 3350 2112 3675 
Q 1925 4000 1612 4012 
Q 1300 4025 1062 3700 
Q 825 3375 750 2687 
z
" transform="scale(0.015625)"/>
       </defs>
       <use xlink:href="#SimHei-30"/>
      </g>
     </g>
    </g>
    <g id="xtick_2">
     <g id="line2d_2">
      <g>
       <use xlink:href="#mb66b4a5434" x="139.419504" y="307.584" style="stroke: #000000; stroke-width: 0.8"/>
      </g>
     </g>
     <g id="text_2">
      <!-- 20 -->
      <g transform="translate(134.419504 321.459) scale(0.1 -0.1)">
       <defs>
        <path id="SimHei-32" d="M 300 250 
Q 325 625 650 925 
Q 975 1225 1475 1862 
Q 1975 2500 2125 2850 
Q 2275 3200 2237 3450 
Q 2200 3700 2000 3862 
Q 1800 4025 1537 4000 
Q 1275 3975 1037 3800 
Q 800 3625 675 3275 
L 200 3350 
Q 400 3925 712 4187 
Q 1025 4450 1450 4475 
Q 1700 4500 1900 4462 
Q 2100 4425 2312 4287 
Q 2525 4150 2662 3875 
Q 2800 3600 2762 3212 
Q 2725 2825 2375 2287 
Q 2025 1750 1025 600 
L 2825 600 
L 2825 150 
L 300 150 
L 300 250 
z
" transform="scale(0.015625)"/>
       </defs>
       <use xlink:href="#SimHei-32"/>
       <use xlink:href="#SimHei-30" x="50"/>
      </g>
     </g>
    </g>
    <g id="xtick_3">
     <g id="line2d_3">
      <g>
       <use xlink:href="#mb66b4a5434" x="205.006281" y="307.584" style="stroke: #000000; stroke-width: 0.8"/>
      </g>
     </g>
     <g id="text_3">
      <!-- 40 -->
      <g transform="translate(200.006281 321.459) scale(0.1 -0.1)">
       <defs>
        <path id="SimHei-34" d="M 2000 1100 
L 75 1100 
L 75 1525 
L 2100 4450 
L 2475 4450 
L 2475 1525 
L 3075 1525 
L 3075 1100 
L 2475 1100 
L 2475 150 
L 2000 150 
L 2000 1100 
z
M 2000 1525 
L 2000 3500 
L 600 1525 
L 2000 1525 
z
" transform="scale(0.015625)"/>
       </defs>
       <use xlink:href="#SimHei-34"/>
       <use xlink:href="#SimHei-30" x="50"/>
      </g>
     </g>
    </g>
    <g id="xtick_4">
     <g id="line2d_4">
      <g>
       <use xlink:href="#mb66b4a5434" x="270.593058" y="307.584" style="stroke: #000000; stroke-width: 0.8"/>
      </g>
     </g>
     <g id="text_4">
      <!-- 60 -->
      <g transform="translate(265.593058 321.459) scale(0.1 -0.1)">
       <defs>
        <path id="SimHei-36" d="M 250 1612 
Q 275 1975 387 2225 
Q 500 2475 725 2850 
L 1750 4450 
L 2325 4450 
L 1275 2800 
Q 1950 2975 2350 2750 
Q 2750 2525 2887 2237 
Q 3025 1950 3037 1612 
Q 3050 1275 2937 950 
Q 2825 625 2537 362 
Q 2250 100 1737 75 
Q 1225 50 862 262 
Q 500 475 362 862 
Q 225 1250 250 1612 
z
M 1025 787 
Q 1250 550 1625 525 
Q 2000 500 2250 775 
Q 2500 1050 2500 1575 
Q 2500 2100 2187 2300 
Q 1875 2500 1487 2450 
Q 1100 2400 925 2075 
Q 750 1750 775 1387 
Q 800 1025 1025 787 
z
" transform="scale(0.015625)"/>
       </defs>
       <use xlink:href="#SimHei-36"/>
       <use xlink:href="#SimHei-30" x="50"/>
      </g>
     </g>
    </g>
    <g id="xtick_5">
     <g id="line2d_5">
      <g>
       <use xlink:href="#mb66b4a5434" x="336.179835" y="307.584" style="stroke: #000000; stroke-width: 0.8"/>
      </g>
     </g>
     <g id="text_5">
      <!-- 80 -->
      <g transform="translate(331.179835 321.459) scale(0.1 -0.1)">
       <defs>
        <path id="SimHei-38" d="M 175 1375 
Q 175 1675 325 1962 
Q 475 2250 825 2425 
Q 525 2600 425 2812 
Q 325 3025 312 3300 
Q 300 3575 387 3775 
Q 475 3975 650 4150 
Q 825 4325 1037 4387 
Q 1250 4450 1500 4450 
Q 1750 4450 1950 4400 
Q 2150 4350 2375 4187 
Q 2600 4025 2700 3725 
Q 2800 3425 2687 3025 
Q 2575 2625 2100 2400 
Q 2525 2275 2700 2012 
Q 2875 1750 2875 1375 
Q 2875 1000 2762 775 
Q 2650 550 2512 400 
Q 2375 250 2137 162 
Q 1900 75 1537 75 
Q 1175 75 912 162 
Q 650 250 475 425 
Q 300 600 237 837 
Q 175 1075 175 1375 
z
M 687 1400 
Q 675 1100 787 875 
Q 900 650 1200 587 
Q 1500 525 1825 600 
Q 2150 675 2275 950 
Q 2400 1225 2362 1500 
Q 2325 1775 2050 1962 
Q 1775 2150 1450 2125 
Q 1125 2100 912 1900 
Q 700 1700 687 1400 
z
M 775 3350 
Q 775 3100 950 2875 
Q 1125 2650 1500 2650 
Q 1875 2650 2062 2875 
Q 2250 3100 2237 3412 
Q 2225 3725 2012 3875 
Q 1800 4025 1437 4000 
Q 1075 3975 925 3787 
Q 775 3600 775 3350 
z
" transform="scale(0.015625)"/>
       </defs>
       <use xlink:href="#SimHei-38"/>
       <use xlink:href="#SimHei-30" x="50"/>
      </g>
     </g>
    </g>
    <g id="xtick_6">
     <g id="line2d_6">
      <g>
       <use xlink:href="#mb66b4a5434" x="401.766612" y="307.584" style="stroke: #000000; stroke-width: 0.8"/>
      </g>
     </g>
     <g id="text_6">
      <!-- 100 -->
      <g transform="translate(394.266612 321.459) scale(0.1 -0.1)">
       <defs>
        <path id="SimHei-31" d="M 1400 3600 
Q 1075 3275 575 2975 
L 575 3450 
Q 1200 3875 1600 4450 
L 1900 4450 
L 1900 150 
L 1400 150 
L 1400 3600 
z
" transform="scale(0.015625)"/>
       </defs>
       <use xlink:href="#SimHei-31"/>
       <use xlink:href="#SimHei-30" x="50"/>
       <use xlink:href="#SimHei-30" x="100"/>
      </g>
     </g>
    </g>
    <g id="text_7">
     <!-- cnt -->
     <g transform="translate(228.66 333.584) scale(0.1 -0.1)">
      <defs>
       <path id="SimHei-63" d="M 2850 1250 
Q 2850 725 2487 400 
Q 2125 75 1575 75 
Q 1025 75 625 462 
Q 225 850 225 1525 
Q 225 2200 625 2587 
Q 1025 2975 1575 2975 
Q 2125 2975 2450 2687 
Q 2775 2400 2775 2000 
L 2225 2000 
Q 2200 2300 2012 2412 
Q 1825 2525 1575 2525 
Q 1275 2525 1025 2287 
Q 775 2050 775 1525 
Q 775 1000 1025 762 
Q 1275 525 1575 525 
Q 1900 525 2100 700 
Q 2300 875 2300 1250 
L 2850 1250 
z
" transform="scale(0.015625)"/>
       <path id="SimHei-6e" d="M 2800 125 
L 2300 125 
L 2300 1925 
Q 2300 2225 2150 2400 
Q 2000 2575 1750 2575 
Q 1425 2575 1137 2237 
Q 850 1900 850 1400 
L 850 125 
L 350 125 
L 350 2925 
L 850 2925 
L 850 2400 
Q 1050 2675 1287 2825 
Q 1525 2975 1900 2975 
Q 2350 2975 2575 2725 
Q 2800 2475 2800 2100 
L 2800 125 
z
" transform="scale(0.015625)"/>
       <path id="SimHei-74" d="M 2750 200 
Q 2625 150 2462 112 
Q 2300 75 2025 75 
Q 1575 75 1300 325 
Q 1025 575 1025 1025 
L 1025 2525 
L 175 2525 
L 175 2925 
L 1025 2925 
L 1025 3900 
L 1525 3900 
L 1525 2925 
L 2550 2925 
L 2550 2525 
L 1525 2525 
L 1525 1000 
Q 1525 800 1625 662 
Q 1725 525 2000 525 
Q 2275 525 2450 575 
Q 2625 625 2750 700 
L 2750 200 
z
" transform="scale(0.015625)"/>
      </defs>
      <use xlink:href="#SimHei-63"/>
      <use xlink:href="#SimHei-6e" x="50"/>
      <use xlink:href="#SimHei-74" x="100"/>
     </g>
    </g>
   </g>
   <g id="matplotlib.axis_2">
    <g id="ytick_1">
     <g id="line2d_7">
      <defs>
       <path id="mace0125b3d" d="M 0 0 
L -3.5 0 
" style="stroke: #000000; stroke-width: 0.8"/>
      </defs>
      <g>
       <use xlink:href="#mace0125b3d" x="57.6" y="286.771709" style="stroke: #000000; stroke-width: 0.8"/>
      </g>
     </g>
     <g id="text_8">
      <!-- 0.0010 -->
      <g transform="translate(20.6 290.209209) scale(0.1 -0.1)">
       <defs>
        <path id="SimHei-2e" d="M 1075 125 
L 500 125 
L 500 675 
L 1075 675 
L 1075 125 
z
" transform="scale(0.015625)"/>
       </defs>
       <use xlink:href="#SimHei-30"/>
       <use xlink:href="#SimHei-2e" x="50"/>
       <use xlink:href="#SimHei-30" x="100"/>
       <use xlink:href="#SimHei-30" x="150"/>
       <use xlink:href="#SimHei-31" x="200"/>
       <use xlink:href="#SimHei-30" x="250"/>
      </g>
     </g>
    </g>
    <g id="ytick_2">
     <g id="line2d_8">
      <g>
       <use xlink:href="#mace0125b3d" x="57.6" y="242.539537" style="stroke: #000000; stroke-width: 0.8"/>
      </g>
     </g>
     <g id="text_9">
      <!-- 0.0012 -->
      <g transform="translate(20.6 245.977037) scale(0.1 -0.1)">
       <use xlink:href="#SimHei-30"/>
       <use xlink:href="#SimHei-2e" x="50"/>
       <use xlink:href="#SimHei-30" x="100"/>
       <use xlink:href="#SimHei-30" x="150"/>
       <use xlink:href="#SimHei-31" x="200"/>
       <use xlink:href="#SimHei-32" x="250"/>
      </g>
     </g>
    </g>
    <g id="ytick_3">
     <g id="line2d_9">
      <g>
       <use xlink:href="#mace0125b3d" x="57.6" y="198.307365" style="stroke: #000000; stroke-width: 0.8"/>
      </g>
     </g>
     <g id="text_10">
      <!-- 0.0014 -->
      <g transform="translate(20.6 201.744865) scale(0.1 -0.1)">
       <use xlink:href="#SimHei-30"/>
       <use xlink:href="#SimHei-2e" x="50"/>
       <use xlink:href="#SimHei-30" x="100"/>
       <use xlink:href="#SimHei-30" x="150"/>
       <use xlink:href="#SimHei-31" x="200"/>
       <use xlink:href="#SimHei-34" x="250"/>
      </g>
     </g>
    </g>
    <g id="ytick_4">
     <g id="line2d_10">
      <g>
       <use xlink:href="#mace0125b3d" x="57.6" y="154.075193" style="stroke: #000000; stroke-width: 0.8"/>
      </g>
     </g>
     <g id="text_11">
      <!-- 0.0016 -->
      <g transform="translate(20.6 157.512693) scale(0.1 -0.1)">
       <use xlink:href="#SimHei-30"/>
       <use xlink:href="#SimHei-2e" x="50"/>
       <use xlink:href="#SimHei-30" x="100"/>
       <use xlink:href="#SimHei-30" x="150"/>
       <use xlink:href="#SimHei-31" x="200"/>
       <use xlink:href="#SimHei-36" x="250"/>
      </g>
     </g>
    </g>
    <g id="ytick_5">
     <g id="line2d_11">
      <g>
       <use xlink:href="#mace0125b3d" x="57.6" y="109.843021" style="stroke: #000000; stroke-width: 0.8"/>
      </g>
     </g>
     <g id="text_12">
      <!-- 0.0018 -->
      <g transform="translate(20.6 113.280521) scale(0.1 -0.1)">
       <use xlink:href="#SimHei-30"/>
       <use xlink:href="#SimHei-2e" x="50"/>
       <use xlink:href="#SimHei-30" x="100"/>
       <use xlink:href="#SimHei-30" x="150"/>
       <use xlink:href="#SimHei-31" x="200"/>
       <use xlink:href="#SimHei-38" x="250"/>
      </g>
     </g>
    </g>
    <g id="ytick_6">
     <g id="line2d_12">
      <g>
       <use xlink:href="#mace0125b3d" x="57.6" y="65.610849" style="stroke: #000000; stroke-width: 0.8"/>
      </g>
     </g>
     <g id="text_13">
      <!-- 0.0020 -->
      <g transform="translate(20.6 69.048349) scale(0.1 -0.1)">
       <use xlink:href="#SimHei-30"/>
       <use xlink:href="#SimHei-2e" x="50"/>
       <use xlink:href="#SimHei-30" x="100"/>
       <use xlink:href="#SimHei-30" x="150"/>
       <use xlink:href="#SimHei-32" x="200"/>
       <use xlink:href="#SimHei-30" x="250"/>
      </g>
     </g>
    </g>
    <g id="text_14">
     <!-- time -->
     <g transform="translate(15.35 184.528) rotate(-90) scale(0.1 -0.1)">
      <defs>
       <path id="SimHei-69" d="M 1800 3725 
L 1300 3725 
L 1300 4375 
L 1800 4375 
L 1800 3725 
z
M 1800 125 
L 1300 125 
L 1300 2925 
L 1800 2925 
L 1800 125 
z
" transform="scale(0.015625)"/>
       <path id="SimHei-6d" d="M 3050 125 
L 2550 125 
L 2550 2150 
Q 2550 2300 2500 2400 
Q 2450 2500 2300 2500 
Q 2125 2500 1975 2312 
Q 1825 2125 1825 1825 
L 1825 125 
L 1325 125 
L 1325 2150 
Q 1325 2300 1275 2400 
Q 1225 2500 1075 2500 
Q 900 2500 750 2312 
Q 600 2125 600 1825 
L 600 125 
L 100 125 
L 100 2925 
L 600 2925 
L 600 2550 
Q 725 2750 900 2862 
Q 1075 2975 1275 2975 
Q 1475 2975 1612 2862 
Q 1750 2750 1800 2550 
Q 1925 2750 2087 2862 
Q 2250 2975 2450 2975 
Q 2750 2975 2900 2812 
Q 3050 2650 3050 2350 
L 3050 125 
z
" transform="scale(0.015625)"/>
       <path id="SimHei-65" d="M 2850 1075 
Q 2800 625 2450 350 
Q 2100 75 1625 75 
Q 1025 75 637 462 
Q 250 850 250 1525 
Q 250 2200 637 2587 
Q 1025 2975 1625 2975 
Q 2150 2975 2487 2637 
Q 2825 2300 2825 1525 
L 800 1525 
Q 800 975 1037 750 
Q 1275 525 1625 525 
Q 1900 525 2075 662 
Q 2250 800 2300 1075 
L 2850 1075 
z
M 2250 1925 
Q 2200 2275 2025 2412 
Q 1850 2550 1575 2550 
Q 1325 2550 1125 2412 
Q 925 2275 825 1925 
L 2250 1925 
z
" transform="scale(0.015625)"/>
      </defs>
      <use xlink:href="#SimHei-74"/>
      <use xlink:href="#SimHei-69" x="50"/>
      <use xlink:href="#SimHei-6d" x="100"/>
      <use xlink:href="#SimHei-65" x="150"/>
     </g>
    </g>
   </g>
   <g id="line2d_13">
    <path d="M 73.832727 286.945925 
L 77.112066 294.064321 
L 80.391405 279.247512 
L 83.670744 286.893196 
L 86.950083 286.787738 
L 90.229421 65.379264 
L 93.50876 286.945925 
L 96.788099 286.418636 
L 100.067438 73.446779 
L 103.346777 279.194783 
L 106.626116 286.26045 
L 109.905455 66.117468 
L 113.184793 286.787738 
L 116.464132 73.235864 
L 119.743471 286.682281 
L 123.02281 279.7748 
L 126.302149 64.535602 
L 129.581488 287.262298 
L 132.860826 290.320572 
L 136.140165 69.650302 
L 139.419504 279.880258 
L 142.698843 284.8895 
L 145.978182 66.802943 
L 149.257521 286.787738 
L 152.53686 73.130406 
L 155.816198 287.051383 
L 159.095537 286.524094 
L 162.374876 65.59018 
L 165.654215 278.720223 
L 168.933554 73.763153 
L 172.212893 278.772952 
L 175.492231 286.998654 
L 178.77157 64.535602 
L 182.050909 286.365908 
L 185.330248 291.375149 
L 188.609587 62.637364 
L 191.888926 294.169779 
L 195.168264 60.528209 
L 198.447603 286.945925 
L 201.726942 291.744251 
L 205.006281 53.568 
L 208.28562 286.682281 
L 211.564959 286.207721 
L 214.844298 66.328384 
L 218.123636 292.113353 
L 221.402975 57.680851 
L 224.682314 286.893196 
L 227.961653 294.907983 
L 231.240992 57.575393 
L 234.520331 286.787738 
L 237.799669 286.418636 
L 241.079008 167.409604 
L 244.358347 56.679003 
L 247.637686 286.682281 
L 250.917025 286.787738 
L 254.196364 64.377416 
L 257.475702 287.525942 
L 260.755041 287.209569 
L 264.03438 73.130406 
L 267.313719 286.787738 
L 270.593058 58.102682 
L 273.872397 286.102263 
L 277.151736 287.420485 
L 280.431074 65.59018 
L 283.710413 293.747948 
L 286.989752 278.931139 
L 290.269091 67.013859 
L 293.54843 286.26045 
L 296.827769 65.484722 
L 300.107107 272.498218 
L 303.386446 173.104321 
L 306.665785 279.827529 
L 309.945124 285.733161 
L 313.224463 286.313179 
L 316.503802 286.840467 
L 319.78314 65.959282 
L 323.062479 287.420485 
L 326.341818 286.154992 
L 329.621157 65.642908 
L 332.900496 283.46582 
L 336.179835 290.162385 
L 339.459174 73.499508 
L 342.738512 278.772952 
L 346.017851 67.172045 
L 349.29719 283.993109 
L 352.576529 295.488 
L 355.855868 57.73358 
L 359.135207 286.787738 
L 362.414545 286.893196 
L 365.693884 63.955585 
L 368.973223 289.635097 
L 372.252562 285.838619 
L 375.531901 65.11562 
L 378.81124 294.749796 
L 382.090579 54.148017 
L 385.369917 290.636945 
L 388.649256 286.524094 
L 391.928595 287.367756 
L 395.207934 65.642908 
L 398.487273 286.207721 
" clip-path="url(#pe19d6be179)" style="fill: none; stroke: #928395; stroke-width: 1.5; stroke-linecap: square"/>
   </g>
   <g id="line2d_14">
    <path d="M 73.832727 286.945925 
L 77.112066 294.064321 
L 80.391405 279.247512 
L 83.670744 286.893196 
L 86.950083 286.787738 
L 90.229421 65.379264 
L 93.50876 286.945925 
L 96.788099 286.418636 
L 100.067438 73.446779 
L 103.346777 279.194783 
L 106.626116 286.26045 
L 109.905455 66.117468 
L 113.184793 286.787738 
L 116.464132 73.235864 
L 119.743471 286.682281 
L 123.02281 279.7748 
L 126.302149 64.535602 
L 129.581488 287.262298 
L 132.860826 290.320572 
L 136.140165 69.650302 
L 139.419504 279.880258 
L 142.698843 284.8895 
L 145.978182 66.802943 
L 149.257521 286.787738 
L 152.53686 73.130406 
L 155.816198 287.051383 
L 159.095537 286.524094 
L 162.374876 65.59018 
L 165.654215 278.720223 
L 168.933554 73.763153 
L 172.212893 278.772952 
L 175.492231 286.998654 
L 178.77157 64.535602 
L 182.050909 286.365908 
L 185.330248 291.375149 
L 188.609587 62.637364 
L 191.888926 294.169779 
L 195.168264 60.528209 
L 198.447603 286.945925 
L 201.726942 291.744251 
L 205.006281 53.568 
L 208.28562 286.682281 
L 211.564959 286.207721 
L 214.844298 66.328384 
L 218.123636 292.113353 
L 221.402975 57.680851 
L 224.682314 286.893196 
L 227.961653 294.907983 
L 231.240992 57.575393 
L 234.520331 286.787738 
L 237.799669 286.418636 
L 241.079008 167.409604 
L 244.358347 56.679003 
L 247.637686 286.682281 
L 250.917025 286.787738 
L 254.196364 64.377416 
L 257.475702 287.525942 
L 260.755041 287.209569 
L 264.03438 73.130406 
L 267.313719 286.787738 
L 270.593058 58.102682 
L 273.872397 286.102263 
L 277.151736 287.420485 
L 280.431074 65.59018 
L 283.710413 293.747948 
L 286.989752 278.931139 
L 290.269091 67.013859 
L 293.54843 286.26045 
L 296.827769 65.484722 
L 300.107107 272.498218 
L 303.386446 173.104321 
L 306.665785 279.827529 
L 309.945124 285.733161 
L 313.224463 286.313179 
L 316.503802 286.840467 
L 319.78314 65.959282 
L 323.062479 287.420485 
L 326.341818 286.154992 
L 329.621157 65.642908 
L 332.900496 283.46582 
L 336.179835 290.162385 
L 339.459174 73.499508 
L 342.738512 278.772952 
L 346.017851 67.172045 
L 349.29719 283.993109 
L 352.576529 295.488 
L 355.855868 57.73358 
L 359.135207 286.787738 
L 362.414545 286.893196 
L 365.693884 63.955585 
L 368.973223 289.635097 
L 372.252562 285.838619 
L 375.531901 65.11562 
L 378.81124 294.749796 
L 382.090579 54.148017 
L 385.369917 290.636945 
L 388.649256 286.524094 
L 391.928595 287.367756 
L 395.207934 65.642908 
L 398.487273 286.207721 
" clip-path="url(#pe19d6be179)" style="fill: none; stroke: #928395; stroke-width: 1.5; stroke-linecap: square"/>
   </g>
   <g id="patch_3">
    <path d="M 57.6 307.584 
L 57.6 41.472 
" style="fill: none; stroke: #000000; stroke-width: 0.8; stroke-linejoin: miter; stroke-linecap: square"/>
   </g>
   <g id="patch_4">
    <path d="M 414.72 307.584 
L 414.72 41.472 
" style="fill: none; stroke: #000000; stroke-width: 0.8; stroke-linejoin: miter; stroke-linecap: square"/>
   </g>
   <g id="patch_5">
    <path d="M 57.6 307.584 
L 414.72 307.584 
" style="fill: none; stroke: #000000; stroke-width: 0.8; stroke-linejoin: miter; stroke-linecap: square"/>
   </g>
   <g id="patch_6">
    <path d="M 57.6 41.472 
L 414.72 41.472 
" style="fill: none; stroke: #000000; stroke-width: 0.8; stroke-linejoin: miter; stroke-linecap: square"/>
   </g>
   <g id="text_15">
    <!-- Encrypt time -->
    <g transform="translate(200.16 35.472) scale(0.12 -0.12)">
     <defs>
      <path id="SimHei-45" d="M 2900 125 
L 350 125 
L 350 4400 
L 2775 4400 
L 2775 3925 
L 925 3925 
L 925 2600 
L 2625 2600 
L 2625 2125 
L 925 2125 
L 925 600 
L 2900 600 
L 2900 125 
z
" transform="scale(0.015625)"/>
      <path id="SimHei-72" d="M 2500 2425 
Q 2025 2500 1700 2287 
Q 1375 2075 1150 1550 
L 1150 125 
L 650 125 
L 650 2925 
L 1150 2925 
L 1150 2200 
Q 1375 2600 1712 2787 
Q 2050 2975 2500 2975 
L 2500 2425 
z
" transform="scale(0.015625)"/>
      <path id="SimHei-79" d="M 2900 2925 
L 1750 -100 
Q 1650 -450 1450 -625 
Q 1250 -800 950 -800 
Q 825 -800 712 -787 
Q 600 -775 500 -725 
L 500 -225 
Q 600 -275 700 -300 
Q 800 -325 875 -325 
Q 1075 -325 1150 -262 
Q 1225 -200 1300 25 
L 200 2925 
L 750 2925 
L 1550 725 
L 1575 725 
L 2350 2925 
L 2900 2925 
z
" transform="scale(0.015625)"/>
      <path id="SimHei-70" d="M 2825 1525 
Q 2825 800 2475 425 
Q 2125 50 1625 50 
Q 1350 50 1150 162 
Q 950 275 800 500 
L 800 -800 
L 300 -800 
L 300 2925 
L 800 2925 
L 800 2550 
Q 950 2775 1150 2875 
Q 1350 2975 1625 2975 
Q 2125 2975 2475 2612 
Q 2825 2250 2825 1525 
z
M 2275 1525 
Q 2275 2000 2087 2262 
Q 1900 2525 1525 2525 
Q 1225 2525 1012 2262 
Q 800 2000 800 1525 
Q 800 1050 1012 775 
Q 1225 500 1525 500 
Q 1900 500 2087 775 
Q 2275 1050 2275 1525 
z
" transform="scale(0.015625)"/>
      <path id="SimHei-20" transform="scale(0.015625)"/>
     </defs>
     <use xlink:href="#SimHei-45"/>
     <use xlink:href="#SimHei-6e" x="50"/>
     <use xlink:href="#SimHei-63" x="100"/>
     <use xlink:href="#SimHei-72" x="150"/>
     <use xlink:href="#SimHei-79" x="200"/>
     <use xlink:href="#SimHei-70" x="250"/>
     <use xlink:href="#SimHei-74" x="300"/>
     <use xlink:href="#SimHei-20" x="350"/>
     <use xlink:href="#SimHei-74" x="400"/>
     <use xlink:href="#SimHei-69" x="450"/>
     <use xlink:href="#SimHei-6d" x="500"/>
     <use xlink:href="#SimHei-65" x="550"/>
    </g>
   </g>
  </g>
 </g>
 <defs>
  <clipPath id="pe19d6be179">
   <rect x="57.6" y="41.472" width="357.12" height="266.112"/>
  </clipPath>
 </defs>
</svg>
